<svg xmlns="http://www.w3.org/2000/svg" width="320" height="320" viewBox="-125 -125 250 250" role="img" aria-label="Animated bloub avatar"><defs><mask id="bot-mask-d4xjt2" maskUnits="userSpaceOnUse" x="-158" y="-158" width="316" height="316"><path d="M100.19 0.33C100.19 3.6 100.03 6.88 99.71 10.13C99.39 13.38 98.9 16.63 98.27 19.84C97.63 23.04 96.83 26.23 95.88 29.36C94.93 32.48 93.83 35.58 92.58 38.6C91.33 41.62 89.92 44.59 88.38 47.47C86.84 50.35 85.15 53.17 83.33 55.89C81.52 58.6 79.56 61.24 77.49 63.77C75.42 66.29 73.21 68.73 70.9 71.04C68.59 73.35 66.15 75.56 63.63 77.63C61.1 79.7 58.46 81.66 55.74 83.48C53.03 85.29 50.21 86.98 47.33 88.52C44.45 90.06 41.47 91.47 38.46 92.72C35.44 93.97 32.34 95.07 29.22 96.02C26.09 96.97 22.9 97.77 19.7 98.41C16.49 99.04 13.24 99.53 9.99 99.85C6.74 100.17 3.45 100.33 0.19 100.33C-3.08 100.33 -6.36 100.17 -9.61 99.85C-12.87 99.53 -16.12 99.04 -19.32 98.41C-22.53 97.77 -25.71 96.97 -28.84 96.02C-31.97 95.07 -35.06 93.97 -38.08 92.72C-41.1 91.47 -44.07 90.06 -46.95 88.52C-49.83 86.98 -52.65 85.29 -55.37 83.48C-58.09 81.66 -60.73 79.7 -63.25 77.63C-65.78 75.56 -68.21 73.35 -70.52 71.04C-72.83 68.73 -75.04 66.29 -77.11 63.77C-79.19 61.24 -81.14 58.6 -82.96 55.89C-84.77 53.17 -86.46 50.35 -88 47.47C-89.54 44.59 -90.95 41.62 -92.2 38.6C-93.45 35.58 -94.56 32.48 -95.51 29.36C-96.46 26.23 -97.25 23.04 -97.89 19.84C-98.53 16.63 -99.01 13.38 -99.33 10.13C-99.65 6.88 -99.81 3.6 -99.81 0.33C-99.81 -2.94 -99.65 -6.22 -99.33 -9.47C-99.01 -12.72 -98.53 -15.98 -97.89 -19.18C-97.25 -22.38 -96.46 -25.57 -95.51 -28.7C-94.56 -31.83 -93.45 -34.92 -92.2 -37.94C-90.95 -40.96 -89.54 -43.93 -88 -46.81C-86.46 -49.69 -84.77 -52.51 -82.96 -55.23C-81.14 -57.94 -79.19 -60.58 -77.11 -63.11C-75.04 -65.64 -72.83 -68.07 -70.52 -70.38C-68.21 -72.69 -65.78 -74.9 -63.25 -76.97C-60.73 -79.04 -58.09 -81 -55.37 -82.82C-52.65 -84.63 -49.83 -86.32 -46.95 -87.86C-44.07 -89.4 -41.1 -90.81 -38.08 -92.06C-35.06 -93.31 -31.97 -94.42 -28.84 -95.37C-25.71 -96.31 -22.53 -97.11 -19.32 -97.75C-16.12 -98.39 -12.87 -98.87 -9.61 -99.19C-6.36 -99.51 -3.08 -99.67 0.19 -99.67C3.45 -99.67 6.74 -99.51 9.99 -99.19C13.24 -98.87 16.49 -98.39 19.7 -97.75C22.9 -97.11 26.09 -96.31 29.22 -95.37C32.34 -94.42 35.44 -93.31 38.46 -92.06C41.47 -90.81 44.45 -89.4 47.33 -87.86C50.21 -86.32 53.03 -84.63 55.74 -82.82C58.46 -81 61.1 -79.04 63.63 -76.97C66.15 -74.9 68.59 -72.69 70.9 -70.38C73.21 -68.07 75.42 -65.64 77.49 -63.11C79.56 -60.58 81.52 -57.94 83.33 -55.23C85.15 -52.51 86.84 -49.69 88.38 -46.81C89.92 -43.93 91.33 -40.96 92.58 -37.94C93.83 -34.92 94.93 -31.83 95.88 -28.7C96.83 -25.57 97.63 -22.38 98.27 -19.18C98.9 -15.98 99.39 -12.72 99.71 -9.47C100.03 -6.22 100.19 -2.94 100.19 0.33Z" fill="#fff"/><path d="M-10.5 -11.5A10.5 10.5 0 0 1 0 -22L0 -22A10.5 10.5 0 0 1 10.5 -11.5L10.5 11.5A10.5 10.5 0 0 1 0 22L0 22A10.5 10.5 0 0 1 -10.5 11.5Z" class="oeil0" opacity="1" fill="#000"/><path d="M-10.5 -11.5A10.5 10.5 0 0 1 0 -22L0 -22A10.5 10.5 0 0 1 10.5 -11.5L10.5 11.5A10.5 10.5 0 0 1 0 22L0 22A10.5 10.5 0 0 1 -10.5 11.5Z" class="oeil1" opacity="1" fill="#000"/></mask></defs><g fill="none" stroke-linecap="round"/><g opacity="1"><path d="M100.19 0.33C100.19 3.6 100.03 6.88 99.71 10.13C99.39 13.38 98.9 16.63 98.27 19.84C97.63 23.04 96.83 26.23 95.88 29.36C94.93 32.48 93.83 35.58 92.58 38.6C91.33 41.62 89.92 44.59 88.38 47.47C86.84 50.35 85.15 53.17 83.33 55.89C81.52 58.6 79.56 61.24 77.49 63.77C75.42 66.29 73.21 68.73 70.9 71.04C68.59 73.35 66.15 75.56 63.63 77.63C61.1 79.7 58.46 81.66 55.74 83.48C53.03 85.29 50.21 86.98 47.33 88.52C44.45 90.06 41.47 91.47 38.46 92.72C35.44 93.97 32.34 95.07 29.22 96.02C26.09 96.97 22.9 97.77 19.7 98.41C16.49 99.04 13.24 99.53 9.99 99.85C6.74 100.17 3.45 100.33 0.19 100.33C-3.08 100.33 -6.36 100.17 -9.61 99.85C-12.87 99.53 -16.12 99.04 -19.32 98.41C-22.53 97.77 -25.71 96.97 -28.84 96.02C-31.97 95.07 -35.06 93.97 -38.08 92.72C-41.1 91.47 -44.07 90.06 -46.95 88.52C-49.83 86.98 -52.65 85.29 -55.37 83.48C-58.09 81.66 -60.73 79.7 -63.25 77.63C-65.78 75.56 -68.21 73.35 -70.52 71.04C-72.83 68.73 -75.04 66.29 -77.11 63.77C-79.19 61.24 -81.14 58.6 -82.96 55.89C-84.77 53.17 -86.46 50.35 -88 47.47C-89.54 44.59 -90.95 41.62 -92.2 38.6C-93.45 35.58 -94.56 32.48 -95.51 29.36C-96.46 26.23 -97.25 23.04 -97.89 19.84C-98.53 16.63 -99.01 13.38 -99.33 10.13C-99.65 6.88 -99.81 3.6 -99.81 0.33C-99.81 -2.94 -99.65 -6.22 -99.33 -9.47C-99.01 -12.72 -98.53 -15.98 -97.89 -19.18C-97.25 -22.38 -96.46 -25.57 -95.51 -28.7C-94.56 -31.83 -93.45 -34.92 -92.2 -37.94C-90.95 -40.96 -89.54 -43.93 -88 -46.81C-86.46 -49.69 -84.77 -52.51 -82.96 -55.23C-81.14 -57.94 -79.19 -60.58 -77.11 -63.11C-75.04 -65.64 -72.83 -68.07 -70.52 -70.38C-68.21 -72.69 -65.78 -74.9 -63.25 -76.97C-60.73 -79.04 -58.09 -81 -55.37 -82.82C-52.65 -84.63 -49.83 -86.32 -46.95 -87.86C-44.07 -89.4 -41.1 -90.81 -38.08 -92.06C-35.06 -93.31 -31.97 -94.42 -28.84 -95.37C-25.71 -96.31 -22.53 -97.11 -19.32 -97.75C-16.12 -98.39 -12.87 -98.87 -9.61 -99.19C-6.36 -99.51 -3.08 -99.67 0.19 -99.67C3.45 -99.67 6.74 -99.51 9.99 -99.19C13.24 -98.87 16.49 -98.39 19.7 -97.75C22.9 -97.11 26.09 -96.31 29.22 -95.37C32.34 -94.42 35.44 -93.31 38.46 -92.06C41.47 -90.81 44.45 -89.4 47.33 -87.86C50.21 -86.32 53.03 -84.63 55.74 -82.82C58.46 -81 61.1 -79.04 63.63 -76.97C66.15 -74.9 68.59 -72.69 70.9 -70.38C73.21 -68.07 75.42 -65.64 77.49 -63.11C79.56 -60.58 81.52 -57.94 83.33 -55.23C85.15 -52.51 86.84 -49.69 88.38 -46.81C89.92 -43.93 91.33 -40.96 92.58 -37.94C93.83 -34.92 94.93 -31.83 95.88 -28.7C96.83 -25.57 97.63 -22.38 98.27 -19.18C98.9 -15.98 99.39 -12.72 99.71 -9.47C100.03 -6.22 100.19 -2.94 100.19 0.33Z" fill="#f9f9f9"/><g mask="url(#bot-mask-d4xjt2)"><rect x="-158" y="-158" width="316" height="316" fill="#0a0a0c"/></g></g><g/><g fill="none" stroke-linecap="round"/><style>.oeil0,.oeil1{transform-box:view-box;transform-origin:0 0;animation-duration:3s;animation-iteration-count:infinite;animation-timing-function:linear;animation-direction:alternate}.oeil0{animation-name:oeil0}.oeil1{animation-name:oeil1}@keyframes oeil0{0%{transform:matrix(0.98,-0.1,0.08,0.99,-15.24,-9.69)}1.695%{transform:matrix(0.98,-0.1,0.08,0.99,-15.28,-9.6)}3.39%{transform:matrix(0.98,-0.1,0.09,0.99,-15.33,-9.52)}5.085%{transform:matrix(0.98,-0.1,0.09,0.99,-15.4,-9.45)}6.78%{transform:matrix(0.98,-0.1,0.09,0.99,-15.49,-9.39)}8.475%{transform:matrix(0.98,-0.1,0.09,0.99,-15.6,-9.35)}10.169%{transform:matrix(0.98,-0.1,0.09,0.99,-15.72,-9.32)}11.864%{transform:matrix(0.98,-0.1,0.09,0.99,-15.86,-9.3)}13.559%{transform:matrix(0.98,-0.1,0.09,0.99,-16.01,-9.29)}15.254%{transform:matrix(0.98,-0.1,0.09,0.99,-16.16,-9.29)}16.949%{transform:matrix(0.98,-0.1,0.09,0.99,-16.31,-9.3)}18.644%{transform:matrix(0.98,-0.1,0.09,0.99,-16.46,-9.3)}20.339%{transform:matrix(0.98,-0.1,0.09,0.99,-16.6,-9.31)}22.034%{transform:matrix(0.98,-0.1,0.09,0.99,-16.72,-9.32)}23.729%{transform:matrix(0.98,-0.1,0.09,0.99,-16.84,-9.32)}25.424%{transform:matrix(0.98,-0.1,0.09,0.99,-16.94,-9.31)}27.119%{transform:matrix(0.98,-0.1,0.09,0.99,-17.03,-9.3)}28.814%{transform:matrix(0.98,-0.1,0.09,0.99,-17.11,-9.27)}30.508%{transform:matrix(0.98,-0.1,0.09,0.99,-17.18,-9.23)}32.203%{transform:matrix(0.98,-0.1,0.09,0.99,-17.25,-9.18)}33.898%{transform:matrix(0.98,-0.1,0.09,0.99,-17.33,-9.12)}35.593%{transform:matrix(0.98,-0.1,0.09,0.99,-17.41,-9.05)}37.288%{transform:matrix(0.98,-0.1,0.09,0.99,-17.5,-8.97)}38.983%{transform:matrix(0.98,-0.1,0.09,0.99,-17.62,-8.88)}40.678%{transform:matrix(0.98,-0.1,0.09,0.99,-17.75,-8.79)}42.373%{transform:matrix(0.98,-0.1,0.09,0.99,-17.9,-8.69)}44.068%{transform:matrix(0.98,-0.1,0.09,0.99,-18.07,-8.59)}45.763%{transform:matrix(0.98,-0.1,0.09,0.99,-18.26,-8.49)}47.458%{transform:matrix(0.98,-0.08,0.09,0.72,-18.47,-8.4)}49.153%{transform:matrix(0.98,-0.01,0.09,0.13,-18.68,-8.31)}50.847%{transform:matrix(0.98,-0.05,0.09,0.48,-18.9,-8.22)}52.542%{transform:matrix(0.98,-0.1,0.09,0.96,-19.1,-8.14)}54.237%{transform:matrix(0.98,-0.1,0.09,0.99,-19.3,-8.06)}55.932%{transform:matrix(0.98,-0.1,0.09,0.99,-19.46,-7.99)}57.627%{transform:matrix(0.98,-0.1,0.09,0.99,-19.59,-7.91)}59.322%{transform:matrix(0.98,-0.1,0.09,0.99,-19.68,-7.84)}61.017%{transform:matrix(0.98,-0.1,0.09,0.99,-19.71,-7.76)}62.712%{transform:matrix(0.98,-0.1,0.09,0.99,-19.7,-7.68)}64.407%{transform:matrix(0.98,-0.1,0.09,0.99,-19.62,-7.58)}66.102%{transform:matrix(0.98,-0.1,0.09,0.99,-19.48,-7.48)}67.797%{transform:matrix(0.98,-0.1,0.09,0.99,-19.29,-7.36)}69.492%{transform:matrix(0.98,-0.1,0.09,0.99,-19.04,-7.22)}71.186%{transform:matrix(0.98,-0.1,0.09,0.99,-18.74,-7.07)}72.881%{transform:matrix(0.98,-0.1,0.09,0.99,-18.41,-6.9)}74.576%{transform:matrix(0.98,-0.1,0.09,0.99,-18.06,-6.71)}76.271%{transform:matrix(0.98,-0.1,0.09,0.99,-17.68,-6.51)}77.966%{transform:matrix(0.98,-0.1,0.09,0.99,-17.31,-6.29)}79.661%{transform:matrix(0.98,-0.1,0.09,0.99,-16.95,-6.06)}81.356%{transform:matrix(0.98,-0.1,0.09,0.99,-16.61,-5.82)}83.051%{transform:matrix(0.98,-0.1,0.09,0.99,-16.3,-5.58)}84.746%{transform:matrix(0.98,-0.1,0.09,0.99,-16.04,-5.35)}86.441%{transform:matrix(0.98,-0.1,0.09,0.99,-15.83,-5.12)}88.136%{transform:matrix(0.98,-0.1,0.09,0.99,-15.67,-4.9)}89.831%{transform:matrix(0.98,-0.1,0.09,0.99,-15.57,-4.7)}91.525%{transform:matrix(0.98,-0.1,0.09,0.99,-15.53,-4.53)}93.22%{transform:matrix(0.98,-0.1,0.09,0.99,-15.54,-4.39)}94.915%{transform:matrix(0.98,-0.1,0.09,0.99,-15.61,-4.29)}96.61%{transform:matrix(0.98,-0.1,0.09,0.99,-15.71,-4.22)}98.305%{transform:matrix(0.98,-0.1,0.09,0.99,-15.86,-4.19)}100%{transform:matrix(0.98,-0.1,0.09,0.99,-16.03,-4.21)}}@keyframes oeil1{0%{transform:matrix(0.92,-0.03,0.08,0.99,39.27,-13.51)}1.695%{transform:matrix(0.92,-0.03,0.08,0.99,39.23,-13.44)}3.39%{transform:matrix(0.92,-0.03,0.09,0.99,39.19,-13.38)}5.085%{transform:matrix(0.92,-0.03,0.09,0.99,39.12,-13.33)}6.78%{transform:matrix(0.92,-0.03,0.09,0.99,39.03,-13.29)}8.475%{transform:matrix(0.92,-0.04,0.09,0.99,38.93,-13.27)}10.169%{transform:matrix(0.92,-0.04,0.09,0.99,38.81,-13.25)}11.864%{transform:matrix(0.92,-0.04,0.09,0.99,38.68,-13.25)}13.559%{transform:matrix(0.92,-0.04,0.09,0.99,38.54,-13.26)}15.254%{transform:matrix(0.92,-0.04,0.09,0.99,38.4,-13.28)}16.949%{transform:matrix(0.92,-0.04,0.09,0.99,38.26,-13.3)}18.644%{transform:matrix(0.92,-0.04,0.09,0.99,38.12,-13.32)}20.339%{transform:matrix(0.92,-0.04,0.09,0.99,37.99,-13.34)}22.034%{transform:matrix(0.92,-0.04,0.09,0.99,37.87,-13.36)}23.729%{transform:matrix(0.92,-0.04,0.09,0.99,37.76,-13.38)}25.424%{transform:matrix(0.92,-0.04,0.09,0.99,37.67,-13.38)}27.119%{transform:matrix(0.92,-0.04,0.09,0.99,37.58,-13.38)}28.814%{transform:matrix(0.92,-0.04,0.09,0.99,37.51,-13.36)}30.508%{transform:matrix(0.92,-0.04,0.09,0.99,37.44,-13.34)}32.203%{transform:matrix(0.92,-0.04,0.09,0.99,37.37,-13.3)}33.898%{transform:matrix(0.92,-0.04,0.09,0.99,37.3,-13.24)}35.593%{transform:matrix(0.92,-0.04,0.09,0.99,37.22,-13.18)}37.288%{transform:matrix(0.92,-0.04,0.09,0.99,37.13,-13.11)}38.983%{transform:matrix(0.93,-0.04,0.09,0.99,37.02,-13.03)}40.678%{transform:matrix(0.93,-0.04,0.09,0.99,36.9,-12.94)}42.373%{transform:matrix(0.93,-0.04,0.09,0.99,36.76,-12.85)}44.068%{transform:matrix(0.93,-0.04,0.09,0.99,36.59,-12.76)}45.763%{transform:matrix(0.93,-0.04,0.09,0.99,36.41,-12.67)}47.458%{transform:matrix(0.93,-0.03,0.09,0.72,36.22,-12.58)}49.153%{transform:matrix(0.93,-0.01,0.09,0.13,36.02,-12.5)}50.847%{transform:matrix(0.93,-0.02,0.09,0.48,35.81,-12.42)}52.542%{transform:matrix(0.93,-0.04,0.09,0.96,35.62,-12.34)}54.237%{transform:matrix(0.93,-0.04,0.09,0.99,35.43,-12.27)}55.932%{transform:matrix(0.93,-0.04,0.09,0.99,35.28,-12.2)}57.627%{transform:matrix(0.93,-0.04,0.09,0.99,35.15,-12.13)}59.322%{transform:matrix(0.93,-0.04,0.09,0.99,35.07,-12.06)}61.017%{transform:matrix(0.93,-0.04,0.09,0.99,35.04,-11.99)}62.712%{transform:matrix(0.93,-0.05,0.09,0.99,35.05,-11.91)}64.407%{transform:matrix(0.93,-0.05,0.09,0.99,35.13,-11.82)}66.102%{transform:matrix(0.93,-0.05,0.09,0.99,35.26,-11.73)}67.797%{transform:matrix(0.93,-0.05,0.09,0.99,35.44,-11.62)}69.492%{transform:matrix(0.93,-0.05,0.09,0.99,35.68,-11.49)}71.186%{transform:matrix(0.93,-0.05,0.09,0.99,35.95,-11.35)}72.881%{transform:matrix(0.93,-0.05,0.09,0.99,36.27,-11.19)}74.576%{transform:matrix(0.93,-0.05,0.09,0.99,36.6,-11.01)}76.271%{transform:matrix(0.92,-0.05,0.09,0.99,36.95,-10.82)}77.966%{transform:matrix(0.92,-0.05,0.09,0.99,37.3,-10.61)}79.661%{transform:matrix(0.92,-0.05,0.09,0.99,37.64,-10.4)}81.356%{transform:matrix(0.92,-0.05,0.09,0.99,37.96,-10.18)}83.051%{transform:matrix(0.92,-0.05,0.09,0.99,38.25,-9.95)}84.746%{transform:matrix(0.92,-0.05,0.09,0.99,38.49,-9.73)}86.441%{transform:matrix(0.92,-0.06,0.09,0.99,38.69,-9.52)}88.136%{transform:matrix(0.92,-0.06,0.09,0.99,38.83,-9.33)}89.831%{transform:matrix(0.92,-0.06,0.09,0.99,38.92,-9.15)}91.525%{transform:matrix(0.92,-0.06,0.09,0.99,38.96,-9)}93.22%{transform:matrix(0.92,-0.06,0.09,0.99,38.95,-8.89)}94.915%{transform:matrix(0.92,-0.06,0.09,0.99,38.88,-8.8)}96.61%{transform:matrix(0.92,-0.06,0.09,0.99,38.78,-8.76)}98.305%{transform:matrix(0.92,-0.06,0.09,0.99,38.64,-8.76)}100%{transform:matrix(0.92,-0.06,0.09,0.99,38.48,-8.8)}}</style></svg>