<svg xmlns="http://www.w3.org/2000/svg" viewBox="-125 -125 250 250">
  <defs>
    <mask id="bloub" maskUnits="userSpaceOnUse" x="-125" y="-125" width="250" height="250">
      <circle cx="0" cy="0" r="92" fill="#fff"/>
      <g transform="translate(-12 2)" fill="#000">
        <path d="M-10.5 -11.5A10.5 10.5 0 0 1 0 -22L0 -22A10.5 10.5 0 0 1 10.5 -11.5L10.5 11.5A10.5 10.5 0 0 1 0 22L0 22A10.5 10.5 0 0 1 -10.5 11.5Z" transform="matrix(0.98,-0.1,0.08,0.99,-15.24,-9.69)"/>
        <path d="M-10.5 -11.5A10.5 10.5 0 0 1 0 -22L0 -22A10.5 10.5 0 0 1 10.5 -11.5L10.5 11.5A10.5 10.5 0 0 1 0 22L0 22A10.5 10.5 0 0 1 -10.5 11.5Z" transform="matrix(0.92,-0.03,0.08,0.99,39.27,-13.51)"/>
      </g>
    </mask>
  </defs>
  <rect x="-125" y="-125" width="250" height="250" rx="55" fill="#141312"/>
  <rect x="-125" y="-125" width="250" height="250" fill="#e8f56b" mask="url(#bloub)"/>
</svg>
