<svg xmlns="http://www.w3.org/2000/svg" width="320" height="320" viewBox="-125 -125 250 250" role="img" aria-label="Animated bloub avatar"><defs><mask id="bot-mask-ur0edt" maskUnits="userSpaceOnUse" x="-158" y="-158" width="316" height="316"><path d="M91.76 0.33C93.06 3.31 94.09 6.47 94.78 9.65C95.47 12.82 95.86 16.12 95.92 19.37C95.98 22.62 95.71 25.93 95.13 29.13C94.56 32.33 93.65 35.53 92.46 38.55C91.27 41.57 89.75 44.53 87.99 47.26C86.23 49.99 84.17 52.6 81.91 54.93C79.65 57.27 77.12 59.42 74.45 61.27C71.77 63.12 68.87 64.74 65.89 66.03C62.91 67.32 59.74 68.34 56.56 69.02C53.38 69.7 49.48 68.96 46.83 70.13C44.18 71.31 42.86 74.23 40.67 76.06C38.47 77.9 36.12 79.62 33.66 81.14C31.2 82.65 28.59 84.02 25.92 85.17C23.25 86.32 20.46 87.3 17.64 88.05C14.81 88.81 11.9 89.36 8.99 89.69C6.08 90.03 3.11 90.15 0.19 90.05C-2.74 89.95 -5.69 89.63 -8.56 89.11C-11.43 88.59 -14.29 87.84 -17.04 86.91C-19.78 85.98 -22.49 84.84 -25.05 83.53C-27.62 82.22 -30.07 80.66 -32.42 79.06C-34.78 77.46 -36.4 74.8 -39.16 73.94C-41.91 73.07 -45.7 74.19 -48.95 73.87C-52.2 73.55 -55.49 72.92 -58.64 72.01C-61.79 71.1 -64.93 69.87 -67.88 68.39C-70.82 66.91 -73.69 65.12 -76.32 63.12C-78.95 61.11 -81.45 58.82 -83.67 56.36C-85.89 53.9 -87.92 51.18 -89.65 48.35C-91.38 45.51 -92.87 42.47 -94.05 39.36C-95.23 36.26 -96.13 32.99 -96.71 29.72C-97.29 26.46 -97.57 23.08 -97.54 19.77C-97.51 16.46 -97.17 13.09 -96.53 9.85C-95.89 6.61 -94.93 3.38 -93.72 0.33C-92.5 -2.73 -90.97 -5.71 -89.23 -8.48C-87.48 -11.24 -85.45 -13.88 -83.25 -16.27C-81.05 -18.65 -77.97 -20.6 -76.03 -22.79C-74.09 -24.98 -72.47 -26.93 -71.62 -29.41C-70.77 -31.89 -71.4 -34.96 -70.93 -37.68C-70.46 -40.41 -69.74 -43.15 -68.8 -45.77C-67.86 -48.39 -66.67 -50.97 -65.28 -53.4C-63.89 -55.82 -62.25 -58.16 -60.45 -60.31C-58.66 -62.46 -56.63 -64.49 -54.48 -66.29C-52.33 -68.09 -49.98 -69.72 -47.55 -71.12C-45.12 -72.51 -42.52 -73.71 -39.89 -74.65C-37.26 -75.6 -34.5 -76.32 -31.75 -76.78C-29.01 -77.25 -26.18 -77.47 -23.41 -77.46C-20.64 -77.44 -17.83 -77.17 -15.13 -76.68C-12.43 -76.18 -9.74 -75.44 -7.18 -74.5C-4.63 -73.56 -2.14 -72.38 0.19 -71.04C2.51 -69.71 4.63 -67.64 6.77 -66.47C8.9 -65.3 10.71 -64.02 12.98 -64.01C15.26 -64 17.89 -65.83 20.43 -66.41C22.98 -66.98 25.63 -67.34 28.26 -67.45C30.89 -67.56 33.59 -67.43 36.21 -67.06C38.83 -66.69 41.47 -66.07 43.99 -65.23C46.51 -64.39 49.01 -63.3 51.34 -62C53.68 -60.71 55.93 -59.18 58 -57.48C60.06 -55.78 62 -53.86 63.72 -51.81C65.44 -49.76 66.99 -47.52 68.31 -45.19C69.62 -42.86 70.74 -40.37 71.61 -37.85C72.48 -35.32 73.12 -32.68 73.51 -30.04C73.9 -27.41 72.77 -24.44 73.96 -22.05C75.14 -19.65 78.45 -17.98 80.62 -15.67C82.79 -13.37 85.12 -10.89 86.98 -8.22C88.84 -5.55 90.46 -2.65 91.76 0.33Z" fill="#fff"/><path d="M-15 0A7.5 7.5 0 0 1 -7.5 -7.5L7.5 -7.5A7.5 7.5 0 0 1 15 0L15 0A7.5 7.5 0 0 1 7.5 7.5L-7.5 7.5A7.5 7.5 0 0 1 -15 0Z" class="oeil0" opacity="1" fill="#000"/><path d="M-15 0A7.5 7.5 0 0 1 -7.5 -7.5L7.5 -7.5A7.5 7.5 0 0 1 15 0L15 0A7.5 7.5 0 0 1 7.5 7.5L-7.5 7.5A7.5 7.5 0 0 1 -15 0Z" class="oeil1" opacity="1" fill="#000"/></mask></defs><g fill="none" stroke-linecap="round"/><g opacity="1"><path d="M91.76 0.33C93.06 3.31 94.09 6.47 94.78 9.65C95.47 12.82 95.86 16.12 95.92 19.37C95.98 22.62 95.71 25.93 95.13 29.13C94.56 32.33 93.65 35.53 92.46 38.55C91.27 41.57 89.75 44.53 87.99 47.26C86.23 49.99 84.17 52.6 81.91 54.93C79.65 57.27 77.12 59.42 74.45 61.27C71.77 63.12 68.87 64.74 65.89 66.03C62.91 67.32 59.74 68.34 56.56 69.02C53.38 69.7 49.48 68.96 46.83 70.13C44.18 71.31 42.86 74.23 40.67 76.06C38.47 77.9 36.12 79.62 33.66 81.14C31.2 82.65 28.59 84.02 25.92 85.17C23.25 86.32 20.46 87.3 17.64 88.05C14.81 88.81 11.9 89.36 8.99 89.69C6.08 90.03 3.11 90.15 0.19 90.05C-2.74 89.95 -5.69 89.63 -8.56 89.11C-11.43 88.59 -14.29 87.84 -17.04 86.91C-19.78 85.98 -22.49 84.84 -25.05 83.53C-27.62 82.22 -30.07 80.66 -32.42 79.06C-34.78 77.46 -36.4 74.8 -39.16 73.94C-41.91 73.07 -45.7 74.19 -48.95 73.87C-52.2 73.55 -55.49 72.92 -58.64 72.01C-61.79 71.1 -64.93 69.87 -67.88 68.39C-70.82 66.91 -73.69 65.12 -76.32 63.12C-78.95 61.11 -81.45 58.82 -83.67 56.36C-85.89 53.9 -87.92 51.18 -89.65 48.35C-91.38 45.51 -92.87 42.47 -94.05 39.36C-95.23 36.26 -96.13 32.99 -96.71 29.72C-97.29 26.46 -97.57 23.08 -97.54 19.77C-97.51 16.46 -97.17 13.09 -96.53 9.85C-95.89 6.61 -94.93 3.38 -93.72 0.33C-92.5 -2.73 -90.97 -5.71 -89.23 -8.48C-87.48 -11.24 -85.45 -13.88 -83.25 -16.27C-81.05 -18.65 -77.97 -20.6 -76.03 -22.79C-74.09 -24.98 -72.47 -26.93 -71.62 -29.41C-70.77 -31.89 -71.4 -34.96 -70.93 -37.68C-70.46 -40.41 -69.74 -43.15 -68.8 -45.77C-67.86 -48.39 -66.67 -50.97 -65.28 -53.4C-63.89 -55.82 -62.25 -58.16 -60.45 -60.31C-58.66 -62.46 -56.63 -64.49 -54.48 -66.29C-52.33 -68.09 -49.98 -69.72 -47.55 -71.12C-45.12 -72.51 -42.52 -73.71 -39.89 -74.65C-37.26 -75.6 -34.5 -76.32 -31.75 -76.78C-29.01 -77.25 -26.18 -77.47 -23.41 -77.46C-20.64 -77.44 -17.83 -77.17 -15.13 -76.68C-12.43 -76.18 -9.74 -75.44 -7.18 -74.5C-4.63 -73.56 -2.14 -72.38 0.19 -71.04C2.51 -69.71 4.63 -67.64 6.77 -66.47C8.9 -65.3 10.71 -64.02 12.98 -64.01C15.26 -64 17.89 -65.83 20.43 -66.41C22.98 -66.98 25.63 -67.34 28.26 -67.45C30.89 -67.56 33.59 -67.43 36.21 -67.06C38.83 -66.69 41.47 -66.07 43.99 -65.23C46.51 -64.39 49.01 -63.3 51.34 -62C53.68 -60.71 55.93 -59.18 58 -57.48C60.06 -55.78 62 -53.86 63.72 -51.81C65.44 -49.76 66.99 -47.52 68.31 -45.19C69.62 -42.86 70.74 -40.37 71.61 -37.85C72.48 -35.32 73.12 -32.68 73.51 -30.04C73.9 -27.41 72.77 -24.44 73.96 -22.05C75.14 -19.65 78.45 -17.98 80.62 -15.67C82.79 -13.37 85.12 -10.89 86.98 -8.22C88.84 -5.55 90.46 -2.65 91.76 0.33Z" fill="#f9f9f9"/><g mask="url(#bot-mask-ur0edt)"><rect x="-158" y="-158" width="316" height="316" fill="#0a0a0c"/></g></g><g/><g fill="none" stroke-linecap="round"/><style>.oeil0,.oeil1{transform-box:view-box;transform-origin:0 0;animation-duration:3s;animation-iteration-count:infinite;animation-timing-function:linear;animation-direction:alternate}.oeil0{animation-name:oeil0}.oeil1{animation-name:oeil1}@keyframes oeil0{0%{transform:matrix(0.95,0.2,-0.26,0.93,-13.53,-26.24)}1.695%{transform:matrix(0.95,0.2,-0.26,0.93,-13.56,-26.18)}3.39%{transform:matrix(0.95,0.2,-0.26,0.93,-13.61,-26.12)}5.085%{transform:matrix(0.95,0.2,-0.26,0.93,-13.67,-26.08)}6.78%{transform:matrix(0.95,0.2,-0.26,0.93,-13.75,-26.05)}8.475%{transform:matrix(0.95,0.2,-0.26,0.93,-13.85,-26.03)}10.169%{transform:matrix(0.95,0.2,-0.26,0.93,-13.96,-26.02)}11.864%{transform:matrix(0.95,0.2,-0.26,0.93,-14.07,-26.02)}13.559%{transform:matrix(0.95,0.2,-0.26,0.93,-14.2,-26.02)}15.254%{transform:matrix(0.95,0.2,-0.26,0.93,-14.33,-26.03)}16.949%{transform:matrix(0.95,0.2,-0.26,0.93,-14.46,-26.05)}18.644%{transform:matrix(0.95,0.2,-0.26,0.93,-14.58,-26.07)}20.339%{transform:matrix(0.95,0.2,-0.26,0.93,-14.7,-26.08)}22.034%{transform:matrix(0.95,0.2,-0.26,0.93,-14.81,-26.1)}23.729%{transform:matrix(0.95,0.2,-0.26,0.93,-14.91,-26.1)}25.424%{transform:matrix(0.95,0.2,-0.26,0.93,-15,-26.1)}27.119%{transform:matrix(0.95,0.2,-0.26,0.93,-15.07,-26.1)}28.814%{transform:matrix(0.95,0.2,-0.26,0.93,-15.14,-26.08)}30.508%{transform:matrix(0.95,0.2,-0.26,0.93,-15.21,-26.05)}32.203%{transform:matrix(0.95,0.2,-0.26,0.93,-15.27,-26.02)}33.898%{transform:matrix(0.95,0.2,-0.26,0.93,-15.33,-25.97)}35.593%{transform:matrix(0.95,0.2,-0.26,0.93,-15.4,-25.92)}37.288%{transform:matrix(0.95,0.2,-0.26,0.93,-15.49,-25.86)}38.983%{transform:matrix(0.95,0.2,-0.26,0.93,-15.58,-25.8)}40.678%{transform:matrix(0.95,0.2,-0.26,0.93,-15.7,-25.74)}42.373%{transform:matrix(0.95,0.2,-0.26,0.93,-15.83,-25.67)}44.068%{transform:matrix(0.95,0.2,-0.26,0.93,-15.98,-25.61)}45.763%{transform:matrix(0.95,0.2,-0.26,0.93,-16.14,-25.55)}47.458%{transform:matrix(0.95,0.14,-0.26,0.68,-16.32,-25.49)}49.153%{transform:matrix(0.94,0.03,-0.26,0.13,-16.51,-25.43)}50.847%{transform:matrix(0.94,0.1,-0.26,0.45,-16.69,-25.38)}52.542%{transform:matrix(0.94,0.19,-0.27,0.9,-16.87,-25.33)}54.237%{transform:matrix(0.94,0.2,-0.27,0.93,-17.04,-25.28)}55.932%{transform:matrix(0.94,0.2,-0.27,0.93,-17.17,-25.23)}57.627%{transform:matrix(0.94,0.2,-0.27,0.93,-17.28,-25.17)}59.322%{transform:matrix(0.94,0.2,-0.27,0.93,-17.36,-25.12)}61.017%{transform:matrix(0.94,0.2,-0.27,0.93,-17.39,-25.06)}62.712%{transform:matrix(0.94,0.2,-0.27,0.93,-17.37,-24.99)}64.407%{transform:matrix(0.94,0.2,-0.27,0.94,-17.3,-24.92)}66.102%{transform:matrix(0.94,0.2,-0.27,0.94,-17.19,-24.83)}67.797%{transform:matrix(0.94,0.2,-0.27,0.94,-17.02,-24.73)}69.492%{transform:matrix(0.94,0.2,-0.27,0.94,-16.82,-24.62)}71.186%{transform:matrix(0.95,0.2,-0.26,0.94,-16.57,-24.49)}72.881%{transform:matrix(0.95,0.2,-0.26,0.94,-16.29,-24.35)}74.576%{transform:matrix(0.95,0.2,-0.26,0.94,-15.98,-24.18)}76.271%{transform:matrix(0.95,0.21,-0.26,0.94,-15.66,-24)}77.966%{transform:matrix(0.95,0.21,-0.26,0.94,-15.34,-23.8)}79.661%{transform:matrix(0.95,0.21,-0.26,0.94,-15.03,-23.6)}81.356%{transform:matrix(0.95,0.21,-0.26,0.94,-14.73,-23.39)}83.051%{transform:matrix(0.95,0.21,-0.26,0.94,-14.47,-23.19)}84.746%{transform:matrix(0.95,0.21,-0.26,0.94,-14.24,-22.98)}86.441%{transform:matrix(0.95,0.21,-0.26,0.94,-14.06,-22.79)}88.136%{transform:matrix(0.95,0.21,-0.26,0.94,-13.92,-22.61)}89.831%{transform:matrix(0.95,0.21,-0.26,0.94,-13.84,-22.45)}91.525%{transform:matrix(0.95,0.21,-0.26,0.94,-13.8,-22.31)}93.22%{transform:matrix(0.95,0.21,-0.26,0.94,-13.82,-22.21)}94.915%{transform:matrix(0.95,0.21,-0.26,0.94,-13.87,-22.13)}96.61%{transform:matrix(0.95,0.21,-0.26,0.94,-13.97,-22.09)}98.305%{transform:matrix(0.95,0.21,-0.26,0.94,-14.1,-22.08)}100%{transform:matrix(0.95,0.21,-0.26,0.94,-14.25,-22.1)}}@keyframes oeil1{0%{transform:matrix(0.85,-0.2,0.32,0.93,34.42,-25.4)}1.695%{transform:matrix(0.85,-0.2,0.32,0.93,34.4,-25.34)}3.39%{transform:matrix(0.85,-0.2,0.32,0.93,34.36,-25.29)}5.085%{transform:matrix(0.85,-0.2,0.33,0.93,34.31,-25.26)}6.78%{transform:matrix(0.85,-0.2,0.33,0.93,34.25,-25.23)}8.475%{transform:matrix(0.85,-0.2,0.33,0.93,34.17,-25.21)}10.169%{transform:matrix(0.85,-0.2,0.33,0.93,34.08,-25.2)}11.864%{transform:matrix(0.85,-0.2,0.33,0.93,33.98,-25.21)}13.559%{transform:matrix(0.85,-0.2,0.33,0.93,33.87,-25.22)}15.254%{transform:matrix(0.85,-0.2,0.33,0.93,33.77,-25.23)}16.949%{transform:matrix(0.85,-0.21,0.33,0.93,33.66,-25.25)}18.644%{transform:matrix(0.85,-0.21,0.33,0.93,33.55,-25.27)}20.339%{transform:matrix(0.85,-0.21,0.33,0.93,33.45,-25.29)}22.034%{transform:matrix(0.85,-0.21,0.33,0.93,33.36,-25.31)}23.729%{transform:matrix(0.86,-0.21,0.33,0.93,33.28,-25.32)}25.424%{transform:matrix(0.86,-0.21,0.33,0.93,33.2,-25.33)}27.119%{transform:matrix(0.86,-0.21,0.33,0.93,33.14,-25.33)}28.814%{transform:matrix(0.86,-0.21,0.33,0.93,33.08,-25.31)}30.508%{transform:matrix(0.86,-0.21,0.33,0.93,33.02,-25.29)}32.203%{transform:matrix(0.86,-0.21,0.33,0.93,32.97,-25.26)}33.898%{transform:matrix(0.86,-0.21,0.33,0.93,32.91,-25.22)}35.593%{transform:matrix(0.86,-0.21,0.33,0.93,32.85,-25.17)}37.288%{transform:matrix(0.86,-0.21,0.33,0.93,32.78,-25.11)}38.983%{transform:matrix(0.86,-0.21,0.32,0.93,32.7,-25.05)}40.678%{transform:matrix(0.86,-0.21,0.32,0.93,32.61,-24.98)}42.373%{transform:matrix(0.86,-0.21,0.32,0.93,32.49,-24.91)}44.068%{transform:matrix(0.86,-0.21,0.32,0.93,32.37,-24.84)}45.763%{transform:matrix(0.86,-0.21,0.32,0.93,32.23,-24.77)}47.458%{transform:matrix(0.86,-0.15,0.32,0.67,32.08,-24.71)}49.153%{transform:matrix(0.86,-0.03,0.32,0.13,31.93,-24.64)}50.847%{transform:matrix(0.86,-0.1,0.32,0.45,31.77,-24.58)}52.542%{transform:matrix(0.86,-0.2,0.32,0.9,31.62,-24.53)}54.237%{transform:matrix(0.87,-0.21,0.32,0.93,31.48,-24.48)}55.932%{transform:matrix(0.87,-0.21,0.32,0.93,31.36,-24.42)}57.627%{transform:matrix(0.87,-0.21,0.32,0.93,31.26,-24.37)}59.322%{transform:matrix(0.87,-0.21,0.32,0.93,31.2,-24.32)}61.017%{transform:matrix(0.87,-0.21,0.32,0.93,31.17,-24.27)}62.712%{transform:matrix(0.87,-0.21,0.32,0.93,31.19,-24.21)}64.407%{transform:matrix(0.87,-0.22,0.32,0.93,31.24,-24.14)}66.102%{transform:matrix(0.87,-0.22,0.32,0.93,31.34,-24.07)}67.797%{transform:matrix(0.87,-0.22,0.32,0.93,31.48,-23.98)}69.492%{transform:matrix(0.86,-0.22,0.32,0.93,31.66,-23.88)}71.186%{transform:matrix(0.86,-0.22,0.32,0.93,31.87,-23.76)}72.881%{transform:matrix(0.86,-0.22,0.32,0.93,32.11,-23.64)}74.576%{transform:matrix(0.86,-0.22,0.32,0.93,32.37,-23.49)}76.271%{transform:matrix(0.86,-0.22,0.32,0.93,32.63,-23.34)}77.966%{transform:matrix(0.86,-0.22,0.33,0.93,32.9,-23.17)}79.661%{transform:matrix(0.85,-0.22,0.33,0.93,33.16,-23)}81.356%{transform:matrix(0.85,-0.22,0.33,0.93,33.41,-22.82)}83.051%{transform:matrix(0.85,-0.22,0.33,0.93,33.62,-22.64)}84.746%{transform:matrix(0.85,-0.23,0.33,0.93,33.81,-22.46)}86.441%{transform:matrix(0.85,-0.23,0.33,0.93,33.94,-22.28)}88.136%{transform:matrix(0.85,-0.23,0.33,0.94,34.04,-22.11)}89.831%{transform:matrix(0.85,-0.23,0.33,0.94,34.09,-21.97)}91.525%{transform:matrix(0.85,-0.23,0.33,0.94,34.11,-21.85)}93.22%{transform:matrix(0.85,-0.23,0.33,0.94,34.09,-21.75)}94.915%{transform:matrix(0.85,-0.23,0.33,0.94,34.04,-21.69)}96.61%{transform:matrix(0.85,-0.23,0.33,0.94,33.96,-21.66)}98.305%{transform:matrix(0.85,-0.23,0.33,0.94,33.85,-21.67)}100%{transform:matrix(0.85,-0.23,0.33,0.94,33.73,-21.71)}}</style></svg>